<svg width="112" height="36" viewBox="0 0 112 36" fill="none" xmlns="http://www.w3.org/2000/svg">
<g filter="url(#filter0_d)">
<path d="M30.3535 14.502C30.3535 15.6973 30.1953 16.8516 29.8789 17.9648C29.5742 19.0664 29.1406 20.1035 28.5781 21.0762C28.0156 22.0371 27.3359 22.916 26.5391 23.7129C25.7422 24.5098 24.8633 25.1953 23.9023 25.7695C22.9414 26.332 21.9043 26.7656 20.791 27.0703C19.6777 27.3867 18.5234 27.5449 17.3281 27.5449C16.1328 27.5449 14.9785 27.3867 13.8652 27.0703C12.7637 26.7656 11.7266 26.332 10.7539 25.7695C9.79297 25.1953 8.91406 24.5098 8.11719 23.7129C7.32031 22.916 6.63477 22.0371 6.06055 21.0762C5.49805 20.1035 5.05859 19.0664 4.74219 17.9648C4.4375 16.8516 4.28516 15.6973 4.28516 14.502C4.28516 13.3066 4.4375 12.1523 4.74219 11.0391C5.05859 9.92578 5.49805 8.88867 6.06055 7.92773C6.63477 6.9668 7.32031 6.08789 8.11719 5.29102C8.91406 4.49414 9.79297 3.81445 10.7539 3.25195C11.7266 2.68945 12.7637 2.25586 13.8652 1.95117C14.9785 1.63477 16.1328 1.47656 17.3281 1.47656C18.5234 1.47656 19.6777 1.63477 20.791 1.95117C21.9043 2.25586 22.9414 2.68945 23.9023 3.25195C24.8633 3.81445 25.7422 4.49414 26.5391 5.29102C27.3359 6.08789 28.0156 6.9668 28.5781 7.92773C29.1406 8.88867 29.5742 9.92578 29.8789 11.0391C30.1953 12.1523 30.3535 13.3066 30.3535 14.502ZM25.3438 14.502C25.3438 13.4004 25.1328 12.3633 24.7109 11.3906C24.2891 10.4062 23.7148 9.55664 22.9883 8.8418C22.2734 8.11523 21.4238 7.54102 20.4395 7.11914C19.4668 6.69727 18.4297 6.48633 17.3281 6.48633C16.2148 6.48633 15.1719 6.69727 14.1992 7.11914C13.2266 7.54102 12.377 8.11523 11.6504 8.8418C10.9238 9.55664 10.3496 10.4062 9.92773 11.3906C9.50586 12.3633 9.29492 13.4004 9.29492 14.502C9.29492 15.6035 9.50586 16.6406 9.92773 17.6133C10.3496 18.5742 10.9238 19.418 11.6504 20.1445C12.377 20.8711 13.2266 21.4453 14.1992 21.8672C15.1719 22.2891 16.2148 22.5 17.3281 22.5C18.4297 22.5 19.4668 22.2891 20.4395 21.8672C21.4238 21.4453 22.2734 20.8711 22.9883 20.1445C23.7148 19.418 24.2891 18.5742 24.7109 17.6133C25.1328 16.6406 25.3438 15.6035 25.3438 14.502ZM37.9648 27H33.166V8.17383H34.3262L35.9082 10.002C36.6816 9.29883 37.5547 8.75977 38.5273 8.38477C39.5117 7.99805 40.5371 7.80469 41.6035 7.80469C42.752 7.80469 43.8359 8.02734 44.8555 8.47266C45.875 8.90625 46.7656 9.50977 47.5273 10.2832C48.2891 11.0449 48.8867 11.9414 49.3203 12.9727C49.7656 13.9922 49.9883 15.082 49.9883 16.2422V27H45.1895V16.2422C45.1895 15.75 45.0957 15.2871 44.9082 14.8535C44.7207 14.4082 44.4629 14.0215 44.1348 13.6934C43.8066 13.3652 43.4258 13.1074 42.9922 12.9199C42.5586 12.7324 42.0957 12.6387 41.6035 12.6387C41.0996 12.6387 40.625 12.7324 40.1797 12.9199C39.7344 13.1074 39.3477 13.3652 39.0195 13.6934C38.6914 14.0215 38.4336 14.4082 38.2461 14.8535C38.0586 15.2871 37.9648 15.75 37.9648 16.2422V27Z" fill="white"/>
<path d="M64.543 16.9277C64.543 18.3223 64.2793 19.6348 63.752 20.8652C63.2246 22.084 62.5039 23.1504 61.5898 24.0645C60.6875 24.9668 59.6211 25.6816 58.3906 26.209C57.1719 26.7363 55.8652 27 54.4707 27C53.627 27 52.7832 26.8945 51.9395 26.6836V21.2695C52.3145 21.4922 52.7188 21.6621 53.1523 21.7793C53.5859 21.8965 54.0254 21.9551 54.4707 21.9551C55.1621 21.9551 55.8125 21.8262 56.4219 21.5684C57.043 21.2988 57.582 20.9355 58.0391 20.4785C58.4961 20.0215 58.8535 19.4883 59.1113 18.8789C59.3809 18.2695 59.5156 17.6191 59.5156 16.9277V1.79297H64.543V16.9277ZM86.3398 17.4199C86.3398 18.8262 86.0879 20.1387 85.584 21.3574C85.0801 22.5645 84.3945 23.6133 83.5273 24.5039C82.6602 25.3828 81.6406 26.0801 80.4688 26.5957C79.3086 27.0996 78.0605 27.3516 76.7246 27.3516C75.4004 27.3516 74.1523 27.0996 72.9805 26.5957C71.8203 26.0801 70.8008 25.3828 69.9219 24.5039C69.0547 23.6133 68.3691 22.5645 67.8652 21.3574C67.3613 20.1387 67.1094 18.8262 67.1094 17.4199C67.1094 15.9902 67.3613 14.666 67.8652 13.4473C68.3691 12.2285 69.0547 11.1797 69.9219 10.3008C70.8008 9.41016 71.8203 8.71289 72.9805 8.20898C74.1523 7.70508 75.4004 7.45312 76.7246 7.45312C78.0605 7.45312 79.3086 7.69336 80.4688 8.17383C81.6406 8.64258 82.6602 9.31641 83.5273 10.1953C84.3945 11.0625 85.0801 12.1113 85.584 13.3418C86.0879 14.5605 86.3398 15.9199 86.3398 17.4199ZM81.5059 17.4199C81.5059 16.6465 81.377 15.9492 81.1191 15.3281C80.873 14.6953 80.5332 14.1562 80.0996 13.7109C79.666 13.2539 79.1562 12.9082 78.5703 12.6738C77.9961 12.4277 77.3809 12.3047 76.7246 12.3047C76.0684 12.3047 75.4473 12.4277 74.8613 12.6738C74.2871 12.9082 73.7832 13.2539 73.3496 13.7109C72.9277 14.1562 72.5938 14.6953 72.3477 15.3281C72.1016 15.9492 71.9785 16.6465 71.9785 17.4199C71.9785 18.1465 72.1016 18.8203 72.3477 19.4414C72.5938 20.0625 72.9277 20.6016 73.3496 21.0586C73.7832 21.5156 74.2871 21.8789 74.8613 22.1484C75.4473 22.4062 76.0684 22.5352 76.7246 22.5352C77.3809 22.5352 77.9961 22.4121 78.5703 22.166C79.1562 21.9199 79.666 21.5742 80.0996 21.1289C80.5332 20.6836 80.873 20.1445 81.1191 19.5117C81.377 18.8789 81.5059 18.1816 81.5059 17.4199ZM107.838 17.4199C107.838 18.8965 107.586 20.2441 107.082 21.4629C106.578 22.6816 105.893 23.7305 105.025 24.6094C104.158 25.4766 103.139 26.1504 101.967 26.6309C100.807 27.1113 99.5586 27.3516 98.2227 27.3516C96.8984 27.3516 95.6504 27.1055 94.4785 26.6133C93.3184 26.1211 92.2988 25.4355 91.4199 24.5566C90.5527 23.6777 89.8672 22.6348 89.3633 21.4277C88.8594 20.209 88.6074 18.873 88.6074 17.4199V0.685547H93.4238V9.47461C93.6816 9.14648 93.9922 8.85352 94.3555 8.5957C94.7305 8.33789 95.1289 8.12695 95.5508 7.96289C95.9844 7.79883 96.4297 7.67578 96.8867 7.59375C97.3438 7.5 97.7891 7.45312 98.2227 7.45312C99.5586 7.45312 100.807 7.70508 101.967 8.20898C103.139 8.70117 104.158 9.39258 105.025 10.2832C105.893 11.1738 106.578 12.2285 107.082 13.4473C107.586 14.6543 107.838 15.9785 107.838 17.4199ZM103.004 17.4199C103.004 16.6934 102.875 16.0195 102.617 15.3984C102.371 14.7656 102.031 14.2207 101.598 13.7637C101.164 13.3066 100.654 12.9492 100.068 12.6914C99.4941 12.4336 98.8789 12.3047 98.2227 12.3047C97.5664 12.3047 96.9453 12.4512 96.3594 12.7441C95.7852 13.0254 95.2812 13.4062 94.8477 13.8867C94.4141 14.3555 94.0742 14.9004 93.8281 15.5215C93.582 16.1309 93.459 16.7637 93.459 17.4199C93.459 18.1465 93.582 18.8203 93.8281 19.4414C94.0742 20.0625 94.4141 20.6016 94.8477 21.0586C95.2812 21.5156 95.7852 21.8789 96.3594 22.1484C96.9453 22.4062 97.5664 22.5352 98.2227 22.5352C98.8789 22.5352 99.4941 22.4062 100.068 22.1484C100.654 21.8789 101.164 21.5156 101.598 21.0586C102.031 20.6016 102.371 20.0625 102.617 19.4414C102.875 18.8203 103.004 18.1465 103.004 17.4199Z" fill="#798BDE"/>
</g>
<defs>
<filter id="filter0_d" x="0.285156" y="0.685547" width="111.553" height="34.8594" filterUnits="userSpaceOnUse" color-interpolation-filters="sRGB">
<feFlood flood-opacity="0" result="BackgroundImageFix"/>
<feColorMatrix in="SourceAlpha" type="matrix" values="0 0 0 0 0 0 0 0 0 0 0 0 0 0 0 0 0 0 127 0"/>
<feOffset dy="4"/>
<feGaussianBlur stdDeviation="2"/>
<feColorMatrix type="matrix" values="0 0 0 0 0 0 0 0 0 0 0 0 0 0 0 0 0 0 0.25 0"/>
<feBlend mode="normal" in2="BackgroundImageFix" result="effect1_dropShadow"/>
<feBlend mode="normal" in="SourceGraphic" in2="effect1_dropShadow" result="shape"/>
</filter>
</defs>
</svg>
