<svg width="20" height="16" viewBox="0 0 20 16" fill="none" xmlns="http://www.w3.org/2000/svg">
<path d="M19 0H1C0.734784 0 0.48043 0.105357 0.292893 0.292893C0.105357 0.48043 0 0.734784 0 1V15C0 15.2652 0.105357 15.5196 0.292893 15.7071C0.48043 15.8946 0.734784 16 1 16H19C19.2652 16 19.5196 15.8946 19.7071 15.7071C19.8946 15.5196 20 15.2652 20 15V1C20 0.734784 19.8946 0.48043 19.7071 0.292893C19.5196 0.105357 19.2652 0 19 0ZM19 1V3H1V1H19ZM1 15V4H19V15H1ZM2 2C2 1.90111 2.02932 1.80444 2.08427 1.72221C2.13921 1.63999 2.2173 1.5759 2.30866 1.53806C2.40002 1.50022 2.50055 1.49031 2.59755 1.50961C2.69454 1.5289 2.78363 1.57652 2.85355 1.64645C2.92348 1.71637 2.9711 1.80546 2.99039 1.90245C3.00969 1.99945 2.99978 2.09998 2.96194 2.19134C2.9241 2.2827 2.86001 2.36079 2.77779 2.41573C2.69556 2.47068 2.59889 2.5 2.5 2.5C2.36739 2.5 2.24021 2.44732 2.14645 2.35355C2.05268 2.25979 2 2.13261 2 2ZM6.5 6C5.80777 6 5.13108 6.20527 4.5555 6.58986C3.97993 6.97444 3.53133 7.52107 3.26642 8.16061C3.00152 8.80015 2.9322 9.50388 3.06725 10.1828C3.2023 10.8617 3.53564 11.4854 4.02513 11.9749C4.51461 12.4644 5.13825 12.7977 5.81718 12.9327C6.49612 13.0678 7.19985 12.9985 7.83939 12.7336C8.47893 12.4687 9.02556 12.0201 9.41014 11.4445C9.79473 10.8689 10 10.1922 10 9.5C9.99894 8.57207 9.62985 7.68244 8.9737 7.0263C8.31756 6.37015 7.42793 6.00106 6.5 6ZM8.95 9H7V7.05C7.48001 7.14895 7.92051 7.38637 8.26707 7.73293C8.61363 8.07949 8.85105 8.51999 8.95 9ZM6.5 12C5.88002 12.0006 5.28193 11.7709 4.82183 11.3553C4.36173 10.9398 4.07245 10.3681 4.01014 9.75125C3.94784 9.13441 4.11695 8.51643 4.48466 8.01726C4.85236 7.5181 5.39242 7.17337 6 7.05V10H8.95C8.83395 10.5643 8.52691 11.0713 8.08063 11.4356C7.63434 11.8 7.0761 11.9993 6.5 12ZM12 10H13V13H12V10ZM14 8H15V13H14V8ZM16 6H17V13H16V6Z" fill="white"/>
</svg>
